<svg width="20" height="20" viewBox="0 0 20 20" fill="none" xmlns="http://www.w3.org/2000/svg">
<path d="M1.66669 16.6667H15" stroke="#295B86" stroke-width="1.5" stroke-linecap="round" stroke-linejoin="round"/>
<path d="M3.18745 10.1384C2.95828 9.97173 2.74995 9.7634 2.49996 9.03423C2.43215 8.8534 2.17588 7.9468 1.95829 7.11755C1.77475 6.41806 1.6112 5.7796 1.68746 5.61755C1.74997 5.45089 1.83328 5.32589 2.10412 5.15922C2.27078 5.05666 3.12495 4.84672 3.29162 4.80505C3.45828 4.76339 3.68744 4.74255 3.87495 4.80505C4.22912 4.86755 4.95828 5.93005 5.14578 6.05505C5.22911 6.13839 5.49995 6.38081 5.81245 6.40922C6.04162 6.43005 6.27078 6.36755 6.52079 6.26339C6.74995 6.1679 11.2708 3.97172 11.6875 3.78422C15.0833 2.36755 17.55 4.69672 17.925 5.19672C18.3125 5.68005 18.3958 5.82589 18.2916 6.24255C18.157 6.68005 17.7916 6.76339 17.5833 6.82589C17.375 6.88839 14.5 7.65922 13.375 7.97172C13.1292 8.05173 13.0092 8.21241 12.9791 8.24255C12.8333 8.4509 12.1708 9.86756 11.9833 10.1801C11.8541 10.5134 11.5 10.9301 11.0416 11.0967C10.5625 11.2634 9.72914 11.4509 9.54164 11.5134C9.35414 11.5759 8.91664 11.7009 8.77081 11.6592C8.58331 11.6176 8.40414 11.4301 8.48748 11.1384C8.57081 10.8467 8.72914 10.0342 8.74998 9.90923C8.77081 9.78423 8.97914 9.2634 8.74998 9.24256C8.70831 9.18006 8.27078 9.36756 7.62495 9.5134C7.14513 9.64848 6.64264 9.78215 6.29162 9.86756C4.93745 10.2634 4.20407 10.3676 4.04162 10.3676C3.72912 10.3676 3.49995 10.3259 3.18745 10.1384Z" stroke="#295B86" stroke-width="1.5"/>
</svg>
