<svg width="14" height="14" viewBox="0 0 14 14" fill="none" xmlns="http://www.w3.org/2000/svg">
<path d="M9.25558 2.20524C9.79598 1.7686 10.4012 1.74209 11.0626 1.75136C11.4046 1.75616 11.5757 1.75856 11.7129 1.81177C11.9306 1.89619 12.1038 2.06946 12.1882 2.28714C12.2414 2.42434 12.2438 2.59537 12.2487 2.93742C12.2579 3.59874 12.2314 4.204 11.7948 4.7444C11.4271 5.19947 10.7951 5.43726 10.491 5.93956C10.2589 6.32304 10.367 6.72018 10.4668 7.12886L11.2133 10.1886C11.3621 10.7984 11.2489 11.1892 10.8225 11.6156C10.5957 11.8424 10.407 11.8309 10.223 11.5378L7.96991 7.94786L6.89389 8.80314C6.50376 9.1133 6.30869 9.26835 6.2062 9.48658C5.9661 9.99763 6.11853 10.7652 6.12628 11.3194C6.1306 11.6256 5.86594 12.2292 5.49145 12.2496C5.26024 12.2622 5.18165 11.9856 5.10697 11.8159L4.38803 10.1817C4.2161 9.79096 4.20905 9.7839 3.81824 9.61199L2.18409 8.89303C2.01436 8.81837 1.73783 8.73973 1.75041 8.50856C1.7708 8.13406 2.37438 7.8694 2.68063 7.87372C3.23477 7.88148 4.00238 8.0339 4.51345 7.7938C4.73166 7.69131 4.88672 7.49624 5.19685 7.10611L6.05214 6.03009L2.46227 3.77702C2.1691 3.59302 2.15759 3.40432 2.3844 3.17751C2.81079 2.75112 3.20163 2.63792 3.81137 2.78669L6.87114 3.53327C7.27983 3.63299 7.67696 3.74117 8.06044 3.50898C8.56275 3.2049 8.80052 2.57293 9.25558 2.20524Z" stroke="white" stroke-width="0.875" stroke-linecap="round" stroke-linejoin="round"/>
</svg>
