<svg width="16" height="16" viewBox="0 0 16 16" fill="none" xmlns="http://www.w3.org/2000/svg">
<path d="M1.3773 7.94207C1.45426 7.52227 1.79277 7.09307 2.33905 6.7226C3.32267 6.05549 4.44608 6.05824 5.57054 6.01661C5.94372 6.00277 6.94576 5.99821 8.00016 6.00061C9.05456 5.99821 10.0566 6.00277 10.4298 6.01661C11.5542 6.05824 12.6776 6.05549 13.6613 6.7226C14.2076 7.09307 14.5461 7.52227 14.623 7.94207C14.6891 8.3024 14.6789 9.53893 14.6027 10.4115C14.5625 10.8715 14.5216 11.0955 14.4606 11.1896C14.2764 11.4735 13.7446 11.7123 12.9623 11.8623C12.2282 12.003 12.3373 12 8.00016 12C3.663 12 3.77217 12.003 3.03805 11.8623C2.25576 11.7123 1.72398 11.4735 1.53976 11.1896C1.47872 11.0955 1.43782 10.8715 1.39763 10.4115C1.32142 9.53893 1.31123 8.3024 1.3773 7.94207Z" stroke="white" stroke-linecap="round" stroke-linejoin="round"/>
<path d="M3 6L3.8755 2.99341C3.95591 2.79339 4.1122 2.62634 4.33245 2.55144C6.49444 1.81619 9.50553 1.81619 11.6675 2.55144C11.8878 2.62634 12.0441 2.79339 12.1245 2.99341L13 6" stroke="white" stroke-linecap="round" stroke-linejoin="round"/>
<path d="M1.6665 8L2.6665 8.33333" stroke="white" stroke-linecap="round" stroke-linejoin="round"/>
<path d="M14.3335 8L13.3335 8.33333" stroke="white" stroke-linecap="round" stroke-linejoin="round"/>
<path d="M5.3335 11.6667L5.49728 11.2572C5.74084 10.6483 5.86262 10.3439 6.11657 10.1719C6.37052 10 6.69843 10 7.35423 10H8.6461C9.3019 10 9.62983 10 9.88376 10.1719C10.1377 10.3439 10.2595 10.6483 10.503 11.2572L10.6668 11.6667" stroke="white" stroke-linecap="round" stroke-linejoin="round"/>
<path d="M4.66774 12.3749V12.9096C4.66778 13.4925 4.64225 13.6017 4.46628 13.7719C4.41478 13.8217 4.31013 13.8934 4.23374 13.9313C4.09999 13.9975 4.05513 14 3.01845 14C1.95848 14 1.93952 13.9989 1.77618 13.9251C1.68493 13.8838 1.56982 13.8014 1.52038 13.7419C1.34586 13.5319 1.33756 13.4699 1.33594 12.3639L1.33638 10" stroke="white" stroke-linecap="round"/>
<path d="M11.332 12.3749V12.9096C11.332 13.4925 11.3575 13.6017 11.5335 13.7719C11.585 13.8217 11.6896 13.8934 11.766 13.9313C11.8998 13.9975 11.9446 14 12.9813 14C14.0413 14 14.0602 13.9989 14.2236 13.9251C14.3148 13.8838 14.43 13.8014 14.4794 13.7419C14.6539 13.5319 14.6622 13.4699 14.6638 12.3639L14.6634 10" stroke="white" stroke-linecap="round"/>
<path d="M13.3335 6.00001L14.3335 5.66667" stroke="white" stroke-linecap="round" stroke-linejoin="round"/>
<path d="M2.6665 6.00001L1.6665 5.66667" stroke="white" stroke-linecap="round" stroke-linejoin="round"/>
</svg>
