<svg width="18" height="15" viewBox="0 0 18 15" fill="none" xmlns="http://www.w3.org/2000/svg">
<path fill-rule="evenodd" clip-rule="evenodd" d="M8.9585 4.1665C8.12969 4.1665 7.33484 4.49574 6.74879 5.0818C6.16274 5.66785 5.8335 6.4627 5.8335 7.2915C5.8335 8.12031 6.16274 8.91516 6.74879 9.50121C7.33484 10.0873 8.12969 10.4165 8.9585 10.4165C9.7873 10.4165 10.5822 10.0873 11.1682 9.50121C11.7543 8.91516 12.0835 8.12031 12.0835 7.2915C12.0835 6.4627 11.7543 5.66785 11.1682 5.0818C10.5822 4.49574 9.7873 4.1665 8.9585 4.1665ZM7.0835 7.2915C7.0835 6.79422 7.28104 6.31731 7.63267 5.96568C7.9843 5.61405 8.46122 5.4165 8.9585 5.4165C9.45578 5.4165 9.93269 5.61405 10.2843 5.96568C10.636 6.31731 10.8335 6.79422 10.8335 7.2915C10.8335 7.78878 10.636 8.2657 10.2843 8.61733C9.93269 8.96896 9.45578 9.1665 8.9585 9.1665C8.46122 9.1665 7.9843 8.96896 7.63267 8.61733C7.28104 8.2657 7.0835 7.78878 7.0835 7.2915Z" fill="#5D5D5D"/>
<path fill-rule="evenodd" clip-rule="evenodd" d="M8.95833 0C5.19667 0 2.6625 2.25333 1.19167 4.16417L1.16583 4.19833C0.8325 4.63083 0.526667 5.02833 0.319167 5.49833C0.0966667 6.0025 0 6.55167 0 7.29167C0 8.03167 0.0966667 8.58083 0.319167 9.085C0.5275 9.555 0.833333 9.95333 1.16583 10.385L1.1925 10.4192C2.6625 12.33 5.19667 14.5833 8.95833 14.5833C12.72 14.5833 15.2542 12.33 16.725 10.4192L16.7508 10.385C17.0842 9.95333 17.39 9.555 17.5975 9.085C17.82 8.58083 17.9167 8.03167 17.9167 7.29167C17.9167 6.55167 17.82 6.0025 17.5975 5.49833C17.3892 5.02833 17.0833 4.63083 16.7508 4.19833L16.7242 4.16417C15.2542 2.25333 12.72 0 8.95833 0ZM2.18333 4.92667C3.54 3.1625 5.75 1.25 8.95833 1.25C12.1667 1.25 14.3758 3.1625 15.7333 4.92667C16.1 5.40167 16.3133 5.685 16.4542 6.00333C16.5858 6.30167 16.6667 6.66583 16.6667 7.29167C16.6667 7.9175 16.5858 8.28167 16.4542 8.58C16.3133 8.89833 16.0992 9.18167 15.7342 9.65667C14.375 11.4208 12.1667 13.3333 8.95833 13.3333C5.75 13.3333 3.54083 11.4208 2.18333 9.65667C1.81667 9.18167 1.60333 8.89833 1.4625 8.58C1.33083 8.28167 1.25 7.9175 1.25 7.29167C1.25 6.66583 1.33083 6.30167 1.4625 6.00333C1.60333 5.685 1.81833 5.40167 2.18333 4.92667Z" fill="#5D5D5D"/>
</svg>
