<svg width="16" height="16" viewBox="0 0 16 16" fill="none" xmlns="http://www.w3.org/2000/svg">
<path d="M2 2.66667V13.3333C2 13.9619 2 14.2761 2.19526 14.4714C2.39053 14.6667 2.70479 14.6667 3.33333 14.6667H12.6667C13.2952 14.6667 13.6095 14.6667 13.8047 14.4714C14 14.2761 14 13.9619 14 13.3333V2.66667" stroke="white" stroke-linecap="round" stroke-linejoin="round"/>
<path d="M7 5.33333V6.33333M7 6.33333V7.33333M7 6.33333H9M9 5.33333V6.33333M9 6.33333V7.33333" stroke="white" stroke-linecap="round" stroke-linejoin="round"/>
<path d="M9.33341 14.6667V11.9999C9.33341 11.2636 8.73648 10.6666 8.00008 10.6666C7.26368 10.6666 6.66675 11.2636 6.66675 11.9999V14.6667" stroke="white" stroke-linecap="round" stroke-linejoin="round"/>
<path d="M1.33325 2.66666H5.33325C5.75985 1.88484 6.79305 1.33333 7.99992 1.33333C9.20678 1.33333 10.24 1.88484 10.6666 2.66666H14.6666" stroke="white" stroke-linecap="round" stroke-linejoin="round"/>
<path d="M4 5.33333H4.66667M4 7.99999H4.66667M4 10.6667H4.66667" stroke="white" stroke-linecap="round" stroke-linejoin="round"/>
<path d="M11.3333 5.33333H11.9999M11.3333 7.99999H11.9999M11.3333 10.6667H11.9999" stroke="white" stroke-linecap="round" stroke-linejoin="round"/>
</svg>
