<svg width="50" height="50" viewBox="0 0 50 50" fill="none" xmlns="http://www.w3.org/2000/svg">
<path d="M37.6208 17.7842L35.5375 16.5059C33.4485 15.2241 32.4041 14.5833 31.25 14.5833C30.0958 14.5833 29.0514 15.2241 26.9625 16.5059L24.8791 17.7842C22.9031 18.9968 21.915 19.603 21.3741 20.5799C20.8333 21.5568 20.8333 22.7351 20.8333 25.092V37.3112C20.8333 41.3285 20.8333 43.3372 22.0537 44.5851C23.2741 45.8333 25.2383 45.8333 29.1666 45.8333H33.3333C37.2616 45.8333 39.2258 45.8333 40.4462 44.5851C41.6666 43.3372 41.6666 41.3285 41.6666 37.3112V25.092C41.6666 22.7351 41.6666 21.5568 41.1258 20.5799C40.585 19.603 39.5969 18.9968 37.6208 17.7842Z" stroke="#295B86" stroke-width="3" stroke-linecap="round" stroke-linejoin="round"/>
<path d="M29.1667 14.8085C27.8358 13.5315 27.0398 12.8601 26.0362 12.6079C24.8696 12.3146 23.6439 12.6435 21.1927 13.3012L18.7481 13.9572C16.4292 14.5795 15.2698 14.8906 14.4643 15.659C13.6588 16.4274 13.3467 17.52 12.7225 19.7053L9.48596 31.0356C8.42186 34.7608 7.88982 36.6233 8.79296 38.0908C9.56948 39.3525 12.6739 40.904 15.625 41.6667" stroke="#295B86" stroke-width="3" stroke-linecap="round" stroke-linejoin="round"/>
<path d="M30.1973 20.8334C31.95 19.668 33.5058 17.7978 34.4725 15.472C36.4683 10.6701 35.1966 5.74433 31.6325 4.46996C28.0681 3.19556 23.5606 6.05516 21.565 10.8571C21.2312 11.6598 20.9889 12.466 20.8333 13.2581" stroke="#295B86" stroke-width="3" stroke-linecap="round"/>
</svg>
