<svg width="16" height="16" viewBox="0 0 16 16" fill="none" xmlns="http://www.w3.org/2000/svg">
<path d="M8.00016 14.6667L6.66683 10.6667H1.3335L2.66683 14.6667H8.00016ZM8.00016 14.6667H10.6668" stroke="white" stroke-linecap="round" stroke-linejoin="round"/>
<path d="M7.99984 8.66667V8.33334C7.99984 7.07627 7.99984 6.44772 7.6093 6.0572C7.21877 5.66667 6.59025 5.66667 5.33317 5.66667C4.07609 5.66667 3.44755 5.66667 3.05703 6.0572C2.6665 6.44772 2.6665 7.07627 2.6665 8.33334V8.66667" stroke="white" stroke-linecap="round" stroke-linejoin="round"/>
<path d="M12.6667 8.66666C12.6667 9.40306 12.0697 9.99999 11.3333 9.99999C10.5969 9.99999 10 9.40306 10 8.66666C10 7.93026 10.5969 7.33333 11.3333 7.33333C12.0697 7.33333 12.6667 7.93026 12.6667 8.66666Z" stroke="white"/>
<path d="M6.66667 2.66666C6.66667 3.40304 6.06971 3.99999 5.33333 3.99999C4.59695 3.99999 4 3.40304 4 2.66666C4 1.93028 4.59695 1.33333 5.33333 1.33333C6.06971 1.33333 6.66667 1.93028 6.66667 2.66666Z" stroke="white"/>
<path d="M9.3335 11.6667H13.3335C14.0699 11.6667 14.6668 12.2636 14.6668 13V13.3333C14.6668 14.0697 14.0699 14.6667 13.3335 14.6667H12.6668" stroke="white" stroke-linecap="round"/>
</svg>
