<svg width="50" height="50" viewBox="0 0 50 50" fill="none" xmlns="http://www.w3.org/2000/svg">
<path d="M17.9753 26.4033H17.0192C13.9281 26.4033 12.3825 26.4033 11.7237 25.3842C11.0649 24.3652 11.6926 22.9454 12.948 20.1059L16.7223 11.5692C17.8637 8.9875 18.4345 7.69662 19.5416 6.97331C20.6488 6.25 22.054 6.25 24.8646 6.25H29.2175C32.6317 6.25 34.3388 6.25 34.9825 7.36531C35.6265 8.48063 34.7796 9.97058 33.0857 12.9505L30.8525 16.8789C30.0105 18.3603 29.5894 19.101 29.5952 19.7073C29.603 20.4953 30.0219 21.2212 30.6988 21.6187C31.2196 21.9248 32.0682 21.9248 33.7655 21.9248C35.9111 21.9248 36.984 21.9248 37.5427 22.2962C38.2686 22.7787 38.6486 23.6421 38.5155 24.5067C38.413 25.1721 37.6913 25.97 36.248 27.566L24.7165 40.3173C22.4515 42.8219 21.319 44.0742 20.5585 43.6779C19.798 43.2815 20.1632 41.6296 20.8936 38.3254L22.3244 31.8533C22.8805 29.3375 23.1586 28.0796 22.4898 27.2415C21.8211 26.4033 20.5391 26.4033 17.9753 26.4033Z" stroke="#295B86" stroke-width="3" stroke-linejoin="round"/>
</svg>
